<svg width="20" height="24" viewBox="0 0 20 24" fill="none" xmlns="http://www.w3.org/2000/svg">
<path d="M8.57143 0.571533C7 0.571533 5.71429 1.85725 5.71429 3.42868H2.85714C1.28571 3.42868 0 4.71439 0 6.28582H20C20 4.71439 18.7143 3.42868 17.1429 3.42868H14.2857C14.2857 1.85725 13 0.571533 11.4286 0.571533H8.57143ZM2.85714 9.14296V22.8858C2.85714 23.2001 3.08571 23.4287 3.4 23.4287H16.6286C16.9429 23.4287 17.1714 23.2001 17.1714 22.8858V9.14296H14.3143V19.143C14.3143 19.943 13.6857 20.5715 12.8857 20.5715C12.0857 20.5715 11.4571 19.943 11.4571 19.143V9.14296H8.6V19.143C8.6 19.943 7.97143 20.5715 7.17143 20.5715C6.37143 20.5715 5.74286 19.943 5.74286 19.143V9.14296H2.88571H2.85714Z" fill="#F5F5F5"/>
</svg>
